<?xml version="1.0" encoding="UTF-8" standalone="no"?>
<!-- Created with Inkscape (http://www.inkscape.org/) -->

<svg
   width="156.67599"
   height="121.84"
   viewBox="0 0 41.453836 32.236832"
   version="1.1"
   id="svg1"
   xml:space="preserve"
   inkscape:export-filename="logoseo.png"
   inkscape:export-xdpi="96"
   inkscape:export-ydpi="96"
   xmlns:inkscape="http://www.inkscape.org/namespaces/inkscape"
   xmlns:sodipodi="http://sodipodi.sourceforge.net/DTD/sodipodi-0.dtd"
   xmlns="http://www.w3.org/2000/svg"
   xmlns:svg="http://www.w3.org/2000/svg"><sodipodi:namedview
     id="namedview1"
     pagecolor="#ffffff"
     bordercolor="#000000"
     borderopacity="0.25"
     inkscape:showpageshadow="2"
     inkscape:pageopacity="0.0"
     inkscape:pagecheckerboard="0"
     inkscape:deskcolor="#d1d1d1"
     inkscape:document-units="mm"
     showguides="true"><sodipodi:guide
       position="114.44711,15.527417"
       orientation="1,0"
       id="guide3"
       inkscape:locked="false" /><sodipodi:guide
       position="78.606025,18.623259"
       orientation="1,0"
       id="guide4"
       inkscape:locked="false" /><sodipodi:guide
       position="29.60677,25.033865"
       orientation="1,0"
       id="guide5"
       inkscape:locked="false" /><sodipodi:guide
       position="23.830418,25.057255"
       orientation="0,-1"
       id="guide6"
       inkscape:locked="false" /></sodipodi:namedview><defs
     id="defs1" /><g
     inkscape:label="Warstwa 1"
     inkscape:groupmode="layer"
     id="layer1"><g
       style="display:inline;fill:#000000"
       id="g10"
       transform="matrix(1.503254,0,0,1.3548387,2.6465924,-1.5098854)"><g
         id="SVGRepo_bgCarrier"
         stroke-width="0"
         style="display:none" /><g
         id="SVGRepo_tracerCarrier"
         stroke-linecap="round"
         stroke-linejoin="round"
         inkscape:label="SVGRepo_tracerCarrier"
         style="display:none" /><g
         id="SVGRepo_iconCarrier"
         style="display:none"><path
           fill="none"
           stroke="#000000"
           stroke-width="2"
           d="M 1,16 8,9 13,14 23,4 M 0,22 H 23.999 M 16,4 h 7 v 7"
           id="path1"
           style="display:inline" /></g><g
         style="display:inline;fill:#0f314d"
         id="g11"
         transform="matrix(1.0000011,0,0,0.99440035,-5.049647e-4,0.08411519)"><path
           fill="none"
           stroke="#0f314d"
           stroke-width="2"
           d="M 1,16 8,9 13,14 23,4 M 0,22 H 23.999 M 16,4 h 7 v 7"
           id="path1-8" /></g></g><path
       id="text2-9"
       style="font-style:normal;font-variant:normal;font-weight:normal;font-stretch:normal;font-size:18.6803px;line-height:1;font-family:'FONTSPRING DEMO - Gluy Extra Bold';-inkscape-font-specification:'FONTSPRING DEMO - Gluy Extra Bold, ';letter-spacing:1.4594px;fill:#f2f726;fill-opacity:1;stroke:#38d67d;stroke-width:0;stroke-linejoin:round;paint-order:stroke markers fill"
       d="m 7.8942856,8.9023967 c -3.1157289,0 -4.9273469,1.5251753 -4.9273469,4.1217133 0,2.57593 1.710227,3.606072 3.132625,4.141866 1.134531,0.412149 2.6416989,0.762662 2.6416989,1.916679 0,0.783083 -0.643497,1.174605 -1.8288289,1.174605 -1.219198,0 -2.845024,-0.453483 -3.827156,-1.051099 v 3.049944 c 1.134532,0.80369 2.658952,0.989087 3.708817,0.989087 3.2173293,0 5.1474893,-1.586532 5.1474893,-4.306715 0,-2.699575 -1.87942,-3.647666 -3.6235514,-4.265889 -1.2022649,-0.412149 -2.3202719,-0.700725 -2.3202719,-1.71049 0,-0.824298 0.677798,-1.215946 1.7445969,-1.215946 1.015998,0 2.6585094,0.309443 3.5729084,0.783414 V 9.6444705 C 10.231534,9.0880695 8.9780176,8.9023967 7.8942856,8.9023967 Z m 24.7101174,0 c -0.0103,0 -0.0202,0.0015 -0.0305,0.0016 v 3.2153073 c 0.0103,-1.16e-4 0.0202,-0.0021 0.0305,-0.0021 1.79493,0 3.25148,1.772476 3.25148,3.956865 0,0.0024 -5.1e-4,0.0048 -5.1e-4,0.0072 h 2.94607 c 0,-0.0024 5.2e-4,-0.0048 5.2e-4,-0.0072 0,-3.956629 -2.79396,-7.1716563 -6.19756,-7.1716563 z m -0.29248,0.01705 c -3.26881,0.1789978 -5.90507,3.3126943 -5.90507,7.1546023 0,3.956628 2.79396,7.171139 6.19755,7.171139 3.32634,0 6.06281,-3.072366 6.18567,-6.905006 h -2.94555 c -0.11302,2.059873 -1.51897,3.690215 -3.24012,3.690215 -1.79493,0 -3.25096,-1.771959 -3.25096,-3.956348 0,-2.064217 1.3007,-3.758398 2.95848,-3.938778 z m -17.2527,0.2506298 V 22.977503 h 8.416025 v -2.988447 h -5.469434 v -2.575554 h 5.130953 v -2.8236 h -5.130953 v -2.431377 h 5.300451 V 9.1700765 Z" /><path
       id="text2-97"
       style="font-style:normal;font-variant:normal;font-weight:normal;font-stretch:normal;font-size:18.6803px;line-height:1;font-family:'FONTSPRING DEMO - Gluy Extra Bold';-inkscape-font-specification:'FONTSPRING DEMO - Gluy Extra Bold, ';letter-spacing:1.4594px;fill:#f5480d;fill-opacity:1;stroke:#38d67d;stroke-width:0;stroke-linejoin:round;paint-order:stroke markers fill"
       d="m 7.8942856,8.9023967 c -3.1157319,0 -4.9273469,1.5251723 -4.9273469,4.1217133 0,2.575933 1.710226,3.606072 3.132625,4.141866 1.134533,0.412149 2.6416989,0.762661 2.6416989,1.916679 0,0.783083 -0.643496,1.174605 -1.8288289,1.174605 -1.219199,0 -2.845023,-0.453482 -3.827156,-1.051099 v 3.049944 c 1.134533,0.803691 2.658951,0.989087 3.708817,0.989087 3.2173323,0 5.1474893,-1.586529 5.1474893,-4.306715 0,-2.699577 -1.879418,-3.647665 -3.6235514,-4.265889 -1.2022659,-0.412149 -2.3202719,-0.700724 -2.3202719,-1.71049 0,-0.824299 0.677797,-1.215946 1.7445959,-1.215946 1.016,0 2.6585094,0.309443 3.5729094,0.783414 V 9.6444705 C 10.231533,9.0880695 8.9780186,8.9023967 7.8942856,8.9023967 Z m 24.4176274,0.01705 c -3.2688,0.1789978 -5.90506,3.3126903 -5.90506,7.1546023 0,3.956632 2.79396,7.171139 6.19755,7.171139 3.32614,0 6.06249,-3.072163 6.18567,-6.904489 h -2.94555 c -0.11334,2.059494 -1.51921,3.689698 -3.24012,3.689698 -1.79493,0 -3.25096,-1.771957 -3.25096,-3.956348 0,-2.064219 1.3007,-3.758398 2.95847,-3.938778 z M 15.059223,9.1700765 V 22.977503 h 8.416024 v -2.988447 h -5.469434 v -2.575554 h 5.130954 v -2.8236 h -5.130954 v -2.431377 h 5.300452 V 9.1700765 Z" /><text
       xml:space="preserve"
       style="font-style:normal;font-variant:normal;font-weight:bold;font-stretch:normal;font-size:6.44326px;line-height:1;font-family:'DejaVu Sans';-inkscape-font-specification:'DejaVu Sans Bold';letter-spacing:0.805407px;fill:#f2f726;fill-opacity:1;stroke:#38d67d;stroke-width:0;stroke-linejoin:round;paint-order:stroke markers fill"
       x="2.4559913"
       y="25.151011"
       id="text3"
       transform="scale(1.0146865,0.98552608)"><tspan
         sodipodi:role="line"
         id="tspan3"
         style="font-style:normal;font-variant:normal;font-weight:bold;font-stretch:normal;font-size:6.44326px;font-family:'DejaVu Sans';-inkscape-font-specification:'DejaVu Sans Bold';letter-spacing:0.805407px;fill:#f2f726;fill-opacity:1;stroke-width:0"
         x="2.4559913"
         y="25.151011">artykuły</tspan></text></g></svg>
