<svg xmlns="http://www.w3.org/2000/svg" version="1.1" xmlns:xlink="http://www.w3.org/1999/xlink" xmlns:svgjs="http://svgjs.dev/svgjs" width="1500" height="1500" viewBox="0 0 1500 1500"><rect width="1500" height="1500" fill="#000000"></rect><g transform="matrix(0.6666666666666666,0,0,0.6666666666666666,249.39393939393938,666.2821372802955)"><svg viewBox="0 0 396 66" data-background-color="#ffffff" preserveAspectRatio="xMidYMid meet" height="250" width="1500" xmlns="http://www.w3.org/2000/svg" xmlns:xlink="http://www.w3.org/1999/xlink"><g id="tight-bounds" transform="matrix(1,0,0,1,0.2400000000000091,0.15227363700296337)"><svg viewBox="0 0 395.52 65.6954527259941" height="65.6954527259941" width="395.52"><g><svg viewBox="0 0 496.8892693743453 82.53278091180232" height="65.6954527259941" width="395.52"><g transform="matrix(1,0,0,1,0,1.4531821048146654)"><svg viewBox="0 0 395.52 79.62641670217299" height="79.62641670217299" width="395.52"><g id="textblocktransform"><svg viewBox="0 0 395.52 79.62641670217299" height="79.62641670217299" width="395.52" id="textblock"><g><svg viewBox="0 0 395.52 79.62641670217299" height="79.62641670217299" width="395.52"><g transform="matrix(1,0,0,1,0,0)"><svg width="395.52" viewBox="3.34 -36.08 229.19 46.14" height="79.62641670217299" data-palette-color="#fee0d3"><path d="M6.98 9.28L4.81 10.06 3.34 6.49 6.35 5.22Q7.3 4.83 7.85 4.44 8.4 4.05 8.64 3.47 8.89 2.88 8.96 1.88 9.03 0.88 9.03-0.73L9.03-0.73 9.03-35.55 13.79-35.55 13.79-0.71Q13.79 1.78 13.53 3.38 13.26 4.98 12.52 6.01 11.79 7.03 10.45 7.76 9.11 8.5 6.98 9.28L6.98 9.28ZM25.68 0L20.99 0 34.3-35.55 39.13-35.55 52.56 0 47.85 0 43.75-11.06 29.76-11.06 25.68 0ZM36.74-30.96L30.86-14.6 42.65-14.6 36.74-30.96ZM73.7 0.49L73.7 0.49Q68.23 0.49 64.59-1.84 60.96-4.17 59.15-8.34 57.34-12.5 57.34-17.97L57.34-17.97Q57.34-23.49 59.36-27.54 61.37-31.59 65.18-33.81 68.99-36.04 74.34-36.04L74.34-36.04Q77.07-36.04 79.38-35.41 81.68-34.79 83.44-33.73 85.2-32.67 86.25-31.3L86.25-31.3 83.91-28.71 83.49-28.71Q82.73-29.57 81.46-30.4 80.2-31.23 78.45-31.76 76.7-32.3 74.48-32.3L74.48-32.3Q70.43-32.3 67.7-30.52 64.96-28.74 63.57-25.51 62.18-22.29 62.18-17.99L62.18-17.99Q62.18-14.6 62.85-11.88 63.52-9.16 64.97-7.23 66.43-5.3 68.79-4.27 71.16-3.25 74.53-3.25L74.53-3.25Q76.92-3.25 78.74-3.58 80.56-3.91 81.83-4.27L81.83-4.27 81.83-15.09 73.85-15.63 74.07-18.77 86.15-18.77 86.15-1.78Q84.35-1.07 82.4-0.56 80.46-0.05 78.3 0.22 76.14 0.49 73.7 0.49ZM108.56 0.02L94.38 0.02 94.38-2.88 99.11-2.88 99.11-32.67 94.38-32.67 94.38-35.55 108.56-35.55 108.56-32.67 103.87-32.67 103.87-2.88 108.56-2.88 108.56 0.02ZM145.89 0.49L145.89 0.49Q141.15 0.49 137.57-1.66 134-3.81 132.02-7.9 130.04-11.99 130.04-17.8L130.04-17.8Q130.04-23.61 132.02-27.7 134-31.79 137.57-33.94 141.15-36.08 145.89-36.08L145.89-36.08Q147.67-36.08 149.4-35.72 151.13-35.35 152.71-34.61 154.28-33.86 155.58-32.75 156.87-31.64 157.78-30.15 158.68-28.66 159.07-26.78L159.07-26.78 155.65-25.54 155.26-25.54Q154.82-27.51 153.53-29.05 152.23-30.59 150.34-31.46 148.45-32.32 146.2-32.32L146.2-32.32Q143.64-32.32 141.55-31.42 139.47-30.52 137.98-28.7 136.49-26.88 135.68-24.16 134.88-21.44 134.88-17.8L134.88-17.8Q134.88-12.96 136.29-9.73 137.71-6.49 140.26-4.87 142.81-3.25 146.2-3.25L146.2-3.25Q148.45-3.25 150.37-4.14 152.28-5.03 153.6-6.57 154.92-8.11 155.36-10.06L155.36-10.06 155.75-10.06 159.17-8.81Q158.78-6.96 157.86-5.46 156.95-3.96 155.64-2.84 154.33-1.73 152.76-0.99 151.18-0.24 149.43 0.12 147.67 0.49 145.89 0.49ZM170.25 0.02L165.78 0.02 165.78-11.84 166.37-35.55 172.01-35.55 183.51-9.67 195.08-35.55 200.57-35.55 201.16-11.87 201.16 0.02 196.71 0.02 196.71-11.77 196.52-29.13 185.39-4.22 181.53-4.22 170.47-29.37 170.25-11.69 170.25 0.02ZM220.25 0.49L220.25 0.49Q217.41 0.49 215.09-0.17 212.78-0.83 211.07-1.89 209.36-2.95 208.36-4.17L208.36-4.17 210.97-6.69 211.29-6.69Q213.02-4.98 215.4-4.13 217.78-3.27 220.22-3.27L220.22-3.27Q223.54-3.27 225.78-4.65 228.01-6.03 228.01-9.38L228.01-9.38Q228.01-11.06 227.4-12.08 226.79-13.11 225.3-13.95 223.81-14.79 221.2-15.87L221.2-15.87 216.24-17.92Q213.8-18.95 212.06-19.95 210.31-20.95 209.39-22.45 208.48-23.95 208.48-26.44L208.48-26.44Q208.48-29.27 209.49-31.14 210.5-33.01 212.24-34.08 213.97-35.16 216.18-35.6 218.39-36.04 220.76-36.04L220.76-36.04Q223.13-36.04 225.23-35.49 227.33-34.94 229.06-33.91 230.79-32.89 232.01-31.47L232.01-31.47 229.47-28.93 229.11-28.93Q227.72-30.54 225.48-31.43 223.25-32.32 220.56-32.32L220.56-32.32Q218.59-32.32 216.91-31.84 215.24-31.35 214.24-30.19 213.24-29.03 213.24-26.95L213.24-26.95Q213.24-25.68 213.69-24.82 214.14-23.95 215.25-23.25 216.36-22.56 218.32-21.75L218.32-21.75 223.32-19.73Q226.23-18.55 228.29-17.37 230.35-16.19 231.44-14.36 232.53-12.52 232.53-9.35L232.53-9.35Q232.53-6.57 231.46-4.68 230.4-2.78 228.62-1.65 226.84-0.51 224.67-0.01 222.49 0.49 220.25 0.49Z" opacity="1" transform="matrix(1,0,0,1,0,0)" fill="#ffffff" class="wordmark-text-0" data-fill-palette-color="primary" id="text-0"></path></svg></g></svg></g></svg></g></svg></g><g transform="matrix(1,0,0,1,414.3178859493822,0)"><svg viewBox="0 0 82.57138342496313 82.53278091180232" height="82.53278091180232" width="82.57138342496313"><g><svg xmlns="http://www.w3.org/2000/svg" xmlns:xlink="http://www.w3.org/1999/xlink" version="1.1" x="0" y="0" viewBox="0.7607695154586737 0.7749999999999999 30.439230484541326 30.425" enable-background="new 0 0 32 32" xml:space="preserve" height="82.53278091180232" width="82.57138342496313" class="icon-icon-0" data-fill-palette-color="accent" id="icon-0"><g fill="#fee0d3" data-fill-palette-color="accent"><g fill="#fee0d3" data-fill-palette-color="accent"><path fill="#ffffff" d="M1.5 31.2C1.3 31.2 1.1 31.1 1 31 0.8 30.8 0.7 30.6 0.8 30.3L4.5 11.2C4.6 10.9 4.8 10.6 5.1 10.6L14.7 9.3C14.9 9.3 15.2 9.3 15.3 9.5L22.5 16.7C22.7 16.9 22.7 17.1 22.7 17.3L21.4 26.9C21.4 27.2 21.1 27.5 20.8 27.5L1.6 31.2zM5.8 12.1L2.4 29.6 19.9 26.2 21.1 17.5 14.4 10.8z" data-fill-palette-color="accent"></path></g><g fill="#fee0d3" data-fill-palette-color="accent"><rect x="5.2" y="19.8" transform="matrix(-0.7071 -0.7071 0.7071 -0.7071 -8.3465 48.7211)" fill="#ffffff" width="1.5" height="12.6" data-fill-palette-color="accent"></rect></g><g fill="#fee0d3" data-fill-palette-color="accent"><path fill="#ffffff" d="M12 23.1C11.2 23.1 10.4 22.8 9.8 22.2S8.9 20.9 8.9 20C8.9 19.2 9.2 18.4 9.8 17.8 11 16.6 13 16.6 14.1 17.8 15.3 19 15.3 20.9 14.1 22.1 13.6 22.8 12.8 23.1 12 23.1M12 18.4C11.6 18.4 11.2 18.6 10.9 18.9S10.4 19.6 10.4 20 10.6 20.8 10.9 21.1C11.5 21.7 12.5 21.7 13.1 21.1S13.7 19.5 13.1 18.9C12.8 18.6 12.4 18.4 12 18.4" data-fill-palette-color="accent"></path></g><g fill="#fee0d3" data-fill-palette-color="accent"><path fill="#ffffff" d="M23.8 18.7C22.9 18.7 22 18.3 21.4 17.7L14.3 10.6C13 9.3 13 7.1 14.3 5.8L19.1 1C19.4 0.7 19.9 0.7 20.2 1L31 11.8C31.1 11.9 31.2 12.1 31.2 12.3S31.1 12.7 31 12.8L26.1 17.7C25.5 18.4 24.7 18.7 23.8 18.7M19.7 2.6L15.4 6.9C14.7 7.6 14.7 8.9 15.4 9.6L22.5 16.7C23.2 17.4 24.5 17.4 25.2 16.7L29.5 12.4z" data-fill-palette-color="accent"></path></g></g></svg></g></svg></g></svg></g><defs></defs></svg><rect width="395.52" height="65.6954527259941" fill="none" stroke="none" visibility="hidden"></rect></g></svg></g></svg>